<svg xmlns:svg="http://www.w3.org/2000/svg" xmlns="http://www.w3.org/2000/svg" width="26" height="26" viewBox="0 0 6.9 6.9" version="1.1"><g transform="translate(0,-290.12082)"><g transform="matrix(0.0127985,0,0,0.0127985,0.24871185,290.38785)"><path d="M496.2 248.1C496.2 111.1 385.1 0 248.1 0 111.1 0 0 111.1 0 248.1c0 137 111.1 248.1 248.1 248.1 137 0 248.1-111.1 248.1-248.1z" fill="#2394bc"/><path d="m138.2 173.6c0-13.9 4.5-28 13.4-42.3 8.9-14.3 22-26.1 39.1-35.5 17.1-9.4 37.1-14.1 60-14.1 21.2 0 40 3.9 56.3 11.8 16.3 7.8 28.8 18.5 37.7 32 8.9 13.5 13.3 28.1 13.3 43.9 0 12.5-2.5 23.4-7.6 32.7-5.1 9.4-11.1 17.5-18 24.3-7 6.8-19.4 18.3-37.5 34.4-5 4.5-9 8.5-12 12-3 3.4-5.2 6.6-6.7 9.4-1.5 2.9-2.6 5.7-3.4 8.6-0.8 2.9-2 7.9-3.6 15.1-2.8 15.2-11.5 22.9-26.1 22.9-7.6 0-14-2.5-19.2-7.5-5.2-5-7.8-12.4-7.8-22.2 0-12.3 1.9-23 5.7-32 3.8-9 8.9-16.9 15.2-23.7 6.3-6.8 14.8-14.9 25.5-24.3 9.4-8.2 16.2-14.4 20.3-18.6 4.2-4.2 7.7-8.8 10.5-14 2.9-5.1 4.3-10.7 4.3-16.7 0-11.7-4.4-21.6-13.1-29.7-8.7-8.1-20-12.1-33.7-12.1-16.1 0-28 4.1-35.6 12.2-7.6 8.1-14.1 20.1-19.3 35.9-5 16.6-14.4 24.8-28.3 24.8-8.2 0-15.1-2.9-20.8-8.7-5.6-5.8-8.5-12-8.5-18.8zm107.2 240.8c-8.9 0-16.7-2.9-23.4-8.7-6.7-5.8-10-13.9-10-24.3 0-9.2 3.2-17 9.7-23.3 6.4-6.3 14.4-9.4 23.7-9.4 9.2 0 17 3.2 23.3 9.4 6.3 6.3 9.4 14.1 9.4 23.3 0 10.3-3.3 18.3-9.9 24.2-6.6 5.9-14.2 8.8-22.8 8.8z" fill="#fff"/></g></g></svg>