<svg xmlns:svg="http://www.w3.org/2000/svg" xmlns="http://www.w3.org/2000/svg" width="26" height="22" viewBox="0 0 6.9 5.8" version="1.1"><g transform="translate(0,-291.17915)"><g transform="matrix(0.10948248,0,0,0.10948157,0.25410154,291.00043)"><path d="M46.3 52.5H1.6c-1 0-1.8-1-1.5-2L10.2 22.7C10.4 22 11 21.5 11.7 21.5H56.5c1 0 1.5 1 1.5 2L47.8 51.3C47.7 52 47 52.5 46.3 52.5Z" fill="#efce4a"/><path d="M50.3 12.5H25l-5-7H1.7C0.8 5.5 0 6.3 0 7.2V50c0.1 0 0.1 0 0.2 0L10.2 22.7C10.4 22 11 21.5 11.7 21.5H52V14.2C52 13.3 51.2 12.5 50.3 12.5Z" fill="#ebba16"/></g></g></svg>