<svg xmlns:svg="http://www.w3.org/2000/svg" xmlns="http://www.w3.org/2000/svg" width="28" height="26" viewBox="0 0 7.4 6.9" version="1.1"><style>.s0{fill:#efce4a;}.s1{fill:#ebba16;}</style><g transform="translate(0,-290.12082)"><g transform="matrix(0.10022682,0,0,0.10022682,0.20606267,291.24433)"><path d="M56 54.5H2C0.9 54.5 0 53.6 0 52.5V20.5h58v32c0 1.1-0.9 2-2 2z" fill="#efce4a"/><path d="M26 11.5V5.5C26 4.4 25.1 3.5 24 3.5H2C0.9 3.5 0 4.4 0 5.5v5 10H58V13.5C58 12.4 57.1 11.5 56 11.5Z" fill="#ebba16"/></g><rect width="6.2" height="4.4" x="1" y="291.6" fill="#fff"/><g transform="matrix(0.10022682,0,0,0.10022682,1.3910189,290.0059)"><path d="M56 54.5H2C0.9 54.5 0 53.6 0 52.5V20.5h58v32c0 1.1-0.9 2-2 2z" fill="#efce4a"/><path d="M26 11.5V5.5C26 4.4 25.1 3.5 24 3.5H2C0.9 3.5 0 4.4 0 5.5v5 10H58V13.5C58 12.4 57.1 11.5 56 11.5Z" fill="#ebba16"/></g></g></svg>