<svg xmlns:svg="http://www.w3.org/2000/svg" xmlns="http://www.w3.org/2000/svg" width="22" height="26" viewBox="0 0 5.8208332 6.8791669" version="1.1" id="svg8"><defs id="defs2"><filter id="filter4614" color-interpolation-filters="sRGB"><feColorMatrix values="1 0 0 0 0 0 1 0 0 0 0 0 1 0 0 0 0 0 1 0" id="feColorMatrix4612" result="fbSourceGraphic"/><feColorMatrix result="fbSourceGraphicAlpha" in="fbSourceGraphic" values="0 0 0 -1 0 0 0 0 -1 0 0 0 0 -1 0 0 0 0 1 0" id="feColorMatrix4998"/><feColorMatrix id="feColorMatrix5000" type="luminanceToAlpha" result="colormatrix1" in="fbSourceGraphic"/><feFlood id="feFlood5002" flood-opacity="1" flood-color="rgb(100,100,100)" result="flood1"/><feComposite in2="colormatrix1" id="feComposite5004" operator="out" result="composite1"/><feFlood id="feFlood5006" flood-opacity="1" flood-color="rgb(200,200,200)" result="flood2"/><feComposite in2="colormatrix1" id="feComposite5008" result="composite2" operator="in"/><feComposite in2="composite1" id="feComposite5010" in="composite2" k2="1" k3="1" operator="arithmetic" result="composite3"/><feColorMatrix id="feColorMatrix5012" in="composite3" type="matrix" values="2 -1 0 0 0 0 2 -1 0 0 -1 0 2 0 0 0 0 0 1 0 " result="colormatrix2"/><feComposite in2="composite3" id="feComposite5014" in="colormatrix2" operator="arithmetic" k2="0" result="composite4"/><feBlend in2="composite3" id="feBlend5016" in="composite4" mode="normal" result="blend"/><feComposite in2="fbSourceGraphic" id="feComposite5018" operator="in"/></filter></defs><metadata id="metadata5"/><g id="layer1" transform="translate(0,-290.12082)"><g id="g4591" transform="matrix(0.01240234,0,0,0.01240234,-0.31064912,290.37124)" filter="url(#filter4614)"><path id="path4485" d="M301 167C271.454 167 248.017 149.759 247.035 149.026 246.918 148.938 230.38 137 211 137c-19.38 0-35.874 11.895-36.035 12.026l-14.37 10.767c-4.351 3.281-10.181 3.911-15.117 1.699-4.98-2.227-8.35-6.987-8.818-12.422C136.308 145.057 136 141.028 136 137V45c0-8.291 6.709-15 15-15h210c8.291 0 15 6.709 15 15v80.896c0 4.761-2.256 9.229-6.079 12.056l-15 11.104C353.983 149.759 330.546 167 301 167Z" fill="#e5e5e5"/><g id="g4491"><path id="path4487" d="m256 257c-61.743 0-113.042-46.289-119.326-107.681-0.527-5.229 1.714-10.371 5.933-13.521l14.399-10.796C158.017 124.241 181.454 107 211 107c29.546 0 52.983 17.241 53.965 17.974C265.082 125.062 281.62 137 301 137c19.38 0 35.874-11.895 36.035-12.026l15.044-11.133c4.526-3.354 10.605-3.896 15.674-1.333 5.054 2.549 8.247 7.72 8.247 13.389V137c0 66.167-53.833 120-120 120zM354.994 452H157.006c-4.673 0-9.097-2.183-11.924-5.903-2.842-3.721-3.779-8.555-2.549-13.066C159.115 372.605 204.716 332 256 332c51.284 0 96.885 40.605 113.467 101.03 1.23 4.512 0.293 9.346-2.549 13.066-2.827 3.721-7.251 5.904-11.924 5.904z" fill="#fcbf29"/></g><path id="path4493" d="m354.994 452c4.673 0 9.097-2.183 11.924-5.903 2.842-3.721 3.779-8.555 2.549-13.066C352.885 372.605 307.284 332 256 332v120z" fill="#fea832"/><path id="path4495" d="m361 482h-6.006c-6.753 0-12.686-4.512-14.473-11.03C327.572 423.729 293.603 392 256 392c-37.603 0-71.572 31.729-84.521 78.97-1.787 6.519-7.72 11.03-14.473 11.03H151c-8.291 0-15-6.709-15-15v-90c0-66.167 53.833-120 120-120 32.212 0 62.314 12.554 84.785 35.376C363.432 314.671 376 344.788 376 377v90c0 8.291-6.709 15-15 15z" fill="#e5e5e5"/><path id="path4497" d="m256 302c-8.291 0-15-6.709-15-15v-30c0-8.291 6.709-15 15-15 8.291 0 15 6.709 15 15v30c0 8.291-6.709 15-15 15z" fill="#fcbf29"/><path id="path4499" d="m91 482c-8.291 0-15-6.709-15-15V45c0-8.291 6.709-15 15-15 8.291 0 15 6.709 15 15v422c0 8.291-6.709 15-15 15z" fill="#787780"/><path id="path4501" d="m421 482c-8.291 0-15-6.709-15-15V45c0-8.291 6.709-15 15-15 8.291 0 15 6.709 15 15v422c0 8.291-6.709 15-15 15z" fill="#57555c"/><path id="path4503" d="M451 512H61c-8.291 0-15-6.709-15-15v0c0-24.814 20.186-45 45-45h330c24.814 0 45 20.186 45 45v0c0 8.291-6.709 15-15 15z" fill="#fd3018"/><g id="g4509"><path id="path4505" d="m340.521 470.97c1.787 6.519 7.72 11.03 14.473 11.03H361c8.291 0 15-6.709 15-15V377C376 344.788 363.432 314.671 340.785 292.376 318.314 269.554 288.212 257 256 257v135c37.603 0 71.572 31.729 84.521 78.97zM361 30H256v124.604c9.597 5.286 25.983 12.396 45 12.396 29.546 0 52.983-17.241 53.921-17.944l15-11.104C373.744 135.125 376 130.657 376 125.896V45c0-8.291-6.709-15-15-15z" fill="#d9d9d9"/></g><path id="path4511" d="m367.753 112.508c-5.068-2.563-11.147-2.021-15.674 1.333l-15.044 11.133C336.874 125.105 320.38 137 301 137c-19.38 0-35.918-11.938-36.035-12.026-0.35-0.262-3.651-2.651-8.965-5.577V257c66.167 0 120-53.833 120-120v-11.104c0-5.668-3.193-10.839-8.247-13.388z" fill="#fea832"/><path id="path4513" d="M421 452H256v60h195c8.291 0 15-6.709 15-15 0-24.814-20.186-45-45-45z" fill="#e61e14"/><path id="path4515" d="m271 287v-30c0-8.291-6.709-15-15-15v60c8.291 0 15-6.709 15-15z" fill="#fea832"/><path id="path4517" d="M421 60H91C66.186 60 46 39.814 46 15v0C46 6.709 52.709 0 61 0h390c8.291 0 15 6.709 15 15v0c0 24.814-20.186 45-45 45z" fill="#fd3018"/><path id="path4519" d="M451 0H256v60h165c24.814 0 45-20.186 45-45 0-8.291-6.709-15-15-15z" fill="#e61e14"/><g id="g4521"/><g id="g4523"/><g id="g4525"/><g id="g4527"/><g id="g4529"/><g id="g4531"/><g id="g4533"/><g id="g4535"/><g id="g4537"/><g id="g4539"/><g id="g4541"/><g id="g4543"/><g id="g4545"/><g id="g4547"/><g id="g4549"/></g></g></svg>