<svg xmlns:svg="http://www.w3.org/2000/svg" xmlns="http://www.w3.org/2000/svg" width="22" height="26" viewBox="0 0 5.8 6.9" version="1.1"><style>.s0{fill:#e5e5e5;}.s1{fill:#fcbf29;}.s2{fill:#fea832;}.s3{fill:#fd3018;}.s4{fill:#d9d9d9;}.s5{fill:#e61e14;}</style><g transform="translate(0,-290.12082)"><g transform="matrix(0.01240234,0,0,0.01240234,-0.31064912,290.37124)"><path d="M301 167C271.5 167 248 149.8 247 149 246.9 148.9 230.4 137 211 137c-19.4 0-35.9 11.9-36 12l-14.4 10.8c-4.4 3.3-10.2 3.9-15.1 1.7-5-2.2-8.3-7-8.8-12.4C136.3 145.1 136 141 136 137V45c0-8.3 6.7-15 15-15h210c8.3 0 15 6.7 15 15v80.9c0 4.8-2.3 9.2-6.1 12.1l-15 11.1C354 149.8 330.5 167 301 167Z" fill="#e5e5e5"/><path d="m256 257c-61.7 0-113-46.3-119.3-107.7-0.5-5.2 1.7-10.4 5.9-13.5l14.4-10.8C158 124.2 181.5 107 211 107c29.5 0 53 17.2 54 18C265.1 125.1 281.6 137 301 137c19.4 0 35.9-11.9 36-12l15-11.1c4.5-3.4 10.6-3.9 15.7-1.3 5.1 2.5 8.2 7.7 8.2 13.4V137c0 66.2-53.8 120-120 120zM355 452H157c-4.7 0-9.1-2.2-11.9-5.9-2.8-3.7-3.8-8.6-2.5-13.1C159.1 372.6 204.7 332 256 332c51.3 0 96.9 40.6 113.5 101 1.2 4.5 0.3 9.3-2.5 13.1-2.8 3.7-7.3 5.9-11.9 5.9z" fill="#fcbf29"/><path d="m355 452c4.7 0 9.1-2.2 11.9-5.9 2.8-3.7 3.8-8.6 2.5-13.1C352.9 372.6 307.3 332 256 332v120z" fill="#fea832"/><path d="m361 482h-6c-6.8 0-12.7-4.5-14.5-11C327.6 423.7 293.6 392 256 392c-37.6 0-71.6 31.7-84.5 79-1.8 6.5-7.7 11-14.5 11H151c-8.3 0-15-6.7-15-15v-90c0-66.2 53.8-120 120-120 32.2 0 62.3 12.6 84.8 35.4C363.4 314.7 376 344.8 376 377v90c0 8.3-6.7 15-15 15z" fill="#e5e5e5"/><path d="m256 302c-8.3 0-15-6.7-15-15v-30c0-8.3 6.7-15 15-15 8.3 0 15 6.7 15 15v30c0 8.3-6.7 15-15 15z" fill="#fcbf29"/><path d="m91 482c-8.3 0-15-6.7-15-15V45c0-8.3 6.7-15 15-15 8.3 0 15 6.7 15 15v422c0 8.3-6.7 15-15 15z" fill="#787780"/><path d="m421 482c-8.3 0-15-6.7-15-15V45c0-8.3 6.7-15 15-15 8.3 0 15 6.7 15 15v422c0 8.3-6.7 15-15 15z" fill="#57555c"/><path d="M451 512H61c-8.3 0-15-6.7-15-15v0c0-24.8 20.2-45 45-45h330c24.8 0 45 20.2 45 45v0c0 8.3-6.7 15-15 15z" fill="#fd3018"/><path d="m340.5 471c1.8 6.5 7.7 11 14.5 11H361c8.3 0 15-6.7 15-15V377C376 344.8 363.4 314.7 340.8 292.4 318.3 269.6 288.2 257 256 257v135c37.6 0 71.6 31.7 84.5 79zM361 30H256v124.6c9.6 5.3 26 12.4 45 12.4 29.5 0 53-17.2 53.9-17.9l15-11.1C373.7 135.1 376 130.7 376 125.9V45c0-8.3-6.7-15-15-15z" fill="#d9d9d9"/><path d="m367.8 112.5c-5.1-2.6-11.1-2-15.7 1.3l-15 11.1C336.9 125.1 320.4 137 301 137c-19.4 0-35.9-11.9-36-12-0.3-0.3-3.7-2.7-9-5.6V257c66.2 0 120-53.8 120-120v-11.1c0-5.7-3.2-10.8-8.2-13.4z" fill="#fea832"/><path d="M421 452H256v60h195c8.3 0 15-6.7 15-15 0-24.8-20.2-45-45-45z" fill="#e61e14"/><path d="m271 287v-30c0-8.3-6.7-15-15-15v60c8.3 0 15-6.7 15-15z" fill="#fea832"/><path d="M421 60H91C66.2 60 46 39.8 46 15v0C46 6.7 52.7 0 61 0h390c8.3 0 15 6.7 15 15v0c0 24.8-20.2 45-45 45z" fill="#fd3018"/><path d="M451 0H256v60h165c24.8 0 45-20.2 45-45 0-8.3-6.7-15-15-15z" fill="#e61e14"/></g></g></svg>