<svg xmlns:svg="http://www.w3.org/2000/svg" xmlns="http://www.w3.org/2000/svg" width="24" height="22" viewBox="0 0 6.3 5.8" version="1.1"><style>.s0{fill:#bfbaa5;}</style><g transform="translate(0,-291.17917)"><g transform="matrix(0.10132979,0,0,0.10132979,0.24095429,291.28331)"><path d="M46.3 52.5H1.6c-1 0-1.8-1-1.5-2L10.2 22.7C10.4 22 11 21.5 11.7 21.5H56.5c1 0 1.5 1 1.5 2L47.8 51.3C47.7 52 47 52.5 46.3 52.5Z" fill="#efce4a"/><path d="M10.2 22.7C10.4 22 11 21.5 11.7 21.5H53v-7H9l-6 6v22z" fill="#f4efdc"/><path d="M23.6 10.5 20 5.5H1.7C0.8 5.5 0 6.3 0 7.2V50c0.1 0 0.1 0 0.2 0L3 42.3V20.5l2-2v-8z" fill="#ebba16"/><polygon points="5 18.5 9 14.5 51 14.5 51 10.5 5 10.5 " fill="#d1bf86"/><rect height="2" width="2" y="19.5" x="28" fill="#bfbaa5"/><rect height="2" width="2" y="19.5" x="35" fill="#bfbaa5"/><rect height="2" width="2" y="19.5" x="42" fill="#bfbaa5"/><rect height="2" width="2" y="19.5" x="14" fill="#bfbaa5"/><rect height="2" width="2" y="19.5" x="21" fill="#bfbaa5"/><polygon points="9 20.5 9 14.5 3 20.5 " fill="#cec9ae"/></g></g></svg>