<svg xmlns:svg="http://www.w3.org/2000/svg" xmlns="http://www.w3.org/2000/svg" width="32" height="26" viewBox="0 0 8.4666665 6.8791669" version="1.1"><g transform="translate(0,-290.12082)"><g transform="matrix(0.13510638,0,0,0.13510638,0.27442072,289.70072)"><path d="M46.324 52.5H1.565c-1.03 0-1.779-0.978-1.51-1.973L10.221 22.656C10.405 21.974 11.024 21.5 11.731 21.5H56.49c1.03 0 1.51 0.984 1.51 1.973L47.834 51.344C47.65 52.026 47.031 52.5 46.324 52.5Z" fill="#efce4a"/><path d="M10.221 22.656C10.405 21.973 11.024 21.5 11.731 21.5H53v-7H9l-6 6v21.953z" fill="#f4efdc"/><path d="M23.571 10.5 20 5.5H1.732C0.776 5.5 0 6.275 0 7.232V49.96c0.069 0.002 0.138 0.006 0.205 0.01L3 42.349V20.5l2-2v-8z" fill="#ebba16"/><polygon points="51 10.5 5 10.5 5 18.5 9 14.5 51 14.5 " fill="#d1bf86"/><rect height="2" width="2" y="19.5" x="28" fill="#bfbaa5"/><rect height="2" width="2" y="19.5" x="35" fill="#bfbaa5"/><rect height="2" width="2" y="19.5" x="42" fill="#bfbaa5"/><rect height="2" width="2" y="19.5" x="14" fill="#bfbaa5"/><rect height="2" width="2" y="19.5" x="21" fill="#bfbaa5"/><polygon points="9 14.5 3 20.5 9 20.5 " fill="#cec9ae"/></g><path d="m6.3891747 294.36847 1.7493806 1.69115c0.1672922 0.16173 0.1718093 0.42822 0.010085 0.59551-0.1617248 0.16729-0.4282019 0.17181-0.5955115 0.0101l-1.7493811-1.69114z" style="fill:#dc8744;stroke-width:0.01750834"/><circle cy="293.50079" cx="4.885541" r="2.0227561" style="fill:#e56353;stroke-width:0.01750834"/><circle cy="293.50079" cx="4.885541" r="1.6846353" style="fill:#e1e6e9;stroke-width:0.01750834"/><path d="m5.0031447 292.21587c0.524479 0.0651 0.914197 0.48672 0.904796 0.5625-0.0094 0.0758-0.33089-0.24258-0.85537-0.30766-0.52448-0.0651-1.053337 0.14777-1.043935 0.072 0.0094-0.0758 0.470029-0.39191 0.994509-0.32685z" style="fill:#ebf0f3;stroke-width:0.01750834"/><rect height="0.21055384" width="0.84230292" transform="rotate(134.0276)" y="-211.37056" x="207.21249" style="fill:#e1e6e9;stroke-width:0.01750822"/><rect height="0.21055384" width="0.84230292" transform="rotate(134.0276)" y="-210.84332" x="207.21194" style="fill:#e1e6e9;stroke-width:0.01750822"/></g></svg>