<svg xmlns:svg="http://www.w3.org/2000/svg" xmlns="http://www.w3.org/2000/svg" width="27" height="26" viewBox="0 0 7.144 6.879" version="1.1"><style>.s0{fill:#000;stroke-width:0.151;}</style><g transform="translate(0,-290.12082)"><path d="m6.851 291.131v3.191c0 0.411-0.333 0.744-0.744 0.744l-2.577 0.011-1.509 1.66v-1.66H0.954c-0.411 0-0.744-0.333-0.744-0.744v-3.191c0-0.411 0.333-0.744 0.744-0.744l5.153-0.011c0.411 0 0.744 0.333 0.744 0.744z" style="fill:#efce4a;stroke-width:0.151"/><path d="M3.531 292.048H1.569c-0.083 0-0.151-0.068-0.151-0.151 0-0.083 0.067-0.151 0.151-0.151h1.962c0.083 0 0.151 0.068 0.151 0.151 0 0.083-0.067 0.151-0.151 0.151zM5.493 292.953H1.569c-0.083 0-0.151-0.068-0.151-0.151 0-0.083 0.067-0.151 0.151-0.151h3.924c0.083 0 0.151 0.068 0.151 0.151 0 0.083-0.067 0.151-0.151 0.151zM5.493 293.859H1.569c-0.083 0-0.151-0.068-0.151-0.151 0-0.083 0.067-0.151 0.151-0.151h3.924c0.083 0 0.151 0.068 0.151 0.151 0 0.083-0.067 0.151-0.151 0.151z" class="s0"/></g></svg>