<svg xmlns:svg="http://www.w3.org/2000/svg" xmlns="http://www.w3.org/2000/svg" width="22" height="26" viewBox="0 0 5.8208332 6.8791669" version="1.1"><g transform="translate(0,-290.12082)"><g transform="matrix(0.09090674,0,0,0.09090674,0.26116008,290.0566)"><path d="M55.981 54.5H2.019C0.904 54.5 0 53.596 0 52.481V20.5h58v31.981c0 1.115-0.904 2.019-2.019 2.019z" fill="#efce4a"/><path d="M26.019 11.5V5.519C26.019 4.404 25.115 3.5 24 3.5H2.019C0.904 3.5 0 4.404 0 5.519v4.981 10H58V13.519C58 12.404 57.096 11.5 55.981 11.5Z" fill="#ebba16"/></g><polygon transform="matrix(0.01166502,0,0,0.01166502,-0.08866692,290.75228)" points="346.5 462 346.5 512 376.5 512 376.5 462 452 462 452 512 482 512 482 432 255 432 255 462 " fill="#203f49"/><rect height="1.7497536" width="0.34995076" y="294.97501" x="2.7225955" style="fill:#203f49;stroke-width:0.01166502"/><polygon transform="matrix(-0.01166502,0,0,0.01166502,5.8604932,290.75228)" points="482 512 482 432 255 432 255 462 346.5 462 346.5 512 376.5 512 376.5 462 452 462 452 512 " fill="#203f49"/></g></svg>